<mxfile type="device" compressed="false">
    <diagram id="Page-1" name="Page-1">
      <mxGraphModel dx="1360" dy="864" grid="1" gridSize="10" guides="1" tooltips="1" connect="1" arrows="1" fold="1" page="1" pageScale="1" pageWidth="827" pageHeight="1169" math="0" shadow="1">
        <root>
          <mxCell id="0" />   
          <mxCell id="1" parent="0" />
        <object id="R1" label="R1">
      <mxCell style="shape=mxgraph.cisco.misc.asr_1000_series;html=1;pointerEvents=1; dashed=0;fillColor=#036897;strokeColor=#ffffff;strokeWidth=2; verticalLabelPosition=bottom;verticalAlign=top;align=center; outlineConnect=0;  " vertex="1" parent="1">
          <mxGeometry x="248" y="239" width="120" height="60" as="geometry" />
      </mxCell>
    </object><object id="R2" label="R2">
      <mxCell style="rounded=1;whiteSpace=wrap;html=1;" vertex="1" parent="1">
          <mxGeometry x="873" y="0" width="120" height="60" as="geometry" />
      </mxCell>
    </object><mxCell id="357273fb7cd4908bfb7a68c35aaafbb1-src" value="Gi1/1" style="labelBackgroundColor=#ffffff;;" vertex="1" connectable="0" parent="357273fb7cd4908bfb7a68c35aaafbb1">
      <mxGeometry x="-0.5" relative="1" as="geometry">
        <mxPoint as="offset" />
      </mxGeometry>
    </mxCell><mxCell id="357273fb7cd4908bfb7a68c35aaafbb1-trgt" value="GE23" style="labelBackgroundColor=#ffffff;;" vertex="1" connectable="0" parent="357273fb7cd4908bfb7a68c35aaafbb1">
      <mxGeometry x="0.5" relative="-1" as="geometry">
        <mxPoint as="offset" />
      </mxGeometry>
    </mxCell><object id="357273fb7cd4908bfb7a68c35aaafbb1" label="DF" src_label="Gi1/1" trgt_label="GE23" source="R1" target="R2">
      <mxCell style="endArrow=none;" edge="1" parent="1" source="R1" target="R2">
          <mxGeometry relative="1" as="geometry" />
      </mxCell>
    </object></root>
      </mxGraphModel>
    </diagram></mxfile>